<?xml version="1.0" encoding="utf-8"?>
<!-- Generator: Adobe Illustrator 26.3.1, SVG Export Plug-In . SVG Version: 6.00 Build 0)  -->
<svg version="1.1" id="Layer_1" xmlns="http://www.w3.org/2000/svg" xmlns:xlink="http://www.w3.org/1999/xlink" x="0px" y="0px"
	 viewBox="0 0 1080 1080" style="enable-background:new 0 0 1080 1080;" xml:space="preserve">
<style type="text/css">
	.st0{fill:#FFFFFF;}
</style>
<g>
	<path class="st0" d="M364.7,502.3c-23.7,26.8-46.9,53-70.1,79.2c-45.4,51.1-90.9,102.1-136,153.5c-5.1,5.8-11.1,19.7-10.1,20.4
		c9.8,6.8,15.2-3.4,21.2-8.4c79.6-66.7,158.8-133.7,238.2-200.7c3.6-3,7.3-6,11-9.1c21.7,13.7,42.4,27.9,64.2,40.2
		c39.6,22.4,80.1,22.1,119.6-0.3c21.4-12.1,41.8-26.1,63.8-40c18.5,15.6,37.3,31.3,56,47.1c64.5,54.4,128.8,109,193.5,163
		c5.6,4.7,13.8,6.2,20.8,9.1c-3.1-6.8-4.8-14.9-9.6-20.4c-65.8-74.7-132-149-198-223.4c-2.9-3.2-5.6-6.5-8.8-10.2
		c2.6-2.1,4.7-4.2,7.1-5.8c101.6-69,203.2-137.9,304.9-206.7c9.6-6.5,19.5-13,29.9-18.1c12.6-6.2,17.5-2.8,17.6,11.2
		c0.1,53.7,0.1,107.3,0.1,161c0,122,0,244,0,366c0,35-27.2,62.3-62.3,62.3c-316.7,0-633.4,0-950.1,0C28.6,872.4,0,843.6,0,804.7
		c0-169.6-0.1-339.2,0.2-508.8c0-8.5,3.3-17,5.1-25.6c9.2,2.7,19.6,3.5,27.3,8.5c73.8,49.1,147,99.1,220.5,148.6
		c33.3,22.5,66.9,44.6,100.4,66.9C357,496.7,360.4,499.2,364.7,502.3z"/>
	<path class="st0" d="M543.1,207.8c162.7,0,325.3,0,488,0c6.9,0,13.9-0.2,20.7,0.7c19.1,2.7,25.1,17.3,12.4,32.4
		c-5.7,6.7-13.5,12.3-21.3,16.5c-148.7,81.1-297.3,162.4-446.6,242.4c-35.5,19-74,18.2-109.7-1.1C339,419.2,191.8,338.9,44.6,258.8
		c-8.2-4.5-17.2-9.6-22.6-16.8c-4.6-6.2-7-16.4-5.3-23.7c1-4.4,11.1-8,17.8-9.7c6.5-1.7,13.7-0.8,20.7-0.8
		C217.8,207.8,380.5,207.8,543.1,207.8z"/>
</g>
</svg>
