<?xml version="1.0" encoding="utf-8"?>
<!-- Generator: Adobe Illustrator 26.3.1, SVG Export Plug-In . SVG Version: 6.00 Build 0)  -->
<svg version="1.1" id="Layer_1" xmlns="http://www.w3.org/2000/svg" xmlns:xlink="http://www.w3.org/1999/xlink" x="0px" y="0px"
	 viewBox="0 0 1080 1080" style="enable-background:new 0 0 1080 1080;" xml:space="preserve">
<style type="text/css">
	.st0{fill:#FFFFFF;}
</style>
<g>
	<path class="st0" d="M539.8,1080c-17.6-24.6-34.8-48.4-51.8-72.4c-66.7-94.3-131.3-190-190.1-289.5
		c-35.6-60.2-69.5-121.3-96.2-186.1c-14.1-34-26.2-68.6-31-105.2c-13.4-101.7,8.7-194.7,70.4-277C298.2,73.6,373.8,24.3,467.5,7.3
		c134.3-24.4,250.4,12.8,345.2,111.4c53.8,55.9,85.4,123.4,96.5,200.1c9.8,67.6,0.9,132.9-24.3,196.5
		c-35.2,88.8-82.9,170.9-132.7,252c-64,104.1-133.8,204.3-205.4,303.3C544.6,1073.6,542.4,1076.5,539.8,1080z M539.8,461.1
		c65.3,0.2,118.2-52.4,118.4-117.8c0.3-65.3-52.4-118.5-117.6-118.6c-65.8-0.2-118.8,52.2-119,117.8
		C421.5,408,474.1,461,539.8,461.1z"/>
</g>
</svg>
